<?xml version="1.0" encoding="UTF-8"?>
<svg version="1.1" viewBox="0 0 2000 2000" width="500" height="500" xmlns="http://www.w3.org/2000/svg">
<path transform="translate(0)" d="m0 0h2e3v2e3h-2e3z"/>
<path transform="translate(972,279)" d="m0 0 9 1 24 4 34 6 12 5 29 16 18 10 24 13 23 13 24 13 23 13 17 9 23 13 17 9 23 13 28 15 23 13 28 15 21 12 20 11 41 24 19 11 24 14 52 30 24 14 26 15 19 11 7 4 20 11 1 1 1 702-2 7-12 11-11 9-16 13-20 15-19 12-25 14-15 9-26 15-17 10-72 42-26 15-22 13-26 15-22 13-26 15-22 13-26 15-41 24-26 15-15 9-26 15-29 17-21 12-25 15-26 15-4 2-6-1-25-11-26-11-21-11-24-14-25-14-24-14-27-15-24-14-18-10-182-104-52-30-24-14-26-15-24-14-26-15-28-16-15-9-21-13-20-13-3-2-1-3v-719l3-3 15-7 7-3 11-7 19-13 13-8 12-7 14-7 23-13 21-11 22-12 23-13 21-11 17-10 12-6 32-18 11-6 30-16 23-13 21-11 10-6 12-6 17-10 33-18 17-10 33-18 17-10 11-6 27-15 56-32z" fill="#011B52"/>
<path transform="translate(972,279)" d="m0 0 9 1 24 4 34 6 12 5 29 16 18 10 24 13 23 13 24 13 23 13 17 9 23 13 17 9 23 13 28 15 23 13 28 15 21 12 20 11 41 24 19 11 24 14 52 30 24 14 26 15 19 11 5 4v21l-5 5-25 14-23 13-26 14-23 13-24 13-23 13-17 9-23 13-20 11-17 10-95 57-28 17-32 19-20 12-65 38-24 14-22 13-24 14-22 13-17 10-8 4-10-1-35-7-16-5-16-8-28-15-24-14-19-10-21-12-27-15-52-29-16-9-29-17-13-8-15-9-28-17-32-19-28-17-32-19-28-17-22-13-24-14-29-17-52-30-13-8-27-15-7-4 3-5 14-8 15-10 14-10 21-12 28-15 88-48 25-14 22-12 23-13 8-4 22-12 16-9 11-6 23-12 10-6 33-18 10-6 12-6 24-14 17-9 24-14 16-9 11-6 27-15 56-32z" fill="#0340A8"/>
</svg>
