<?xml version="1.0" encoding="UTF-8"?>
<svg version="1.1" viewBox="0 0 2048 204" width="1000" height="100" xmlns="http://www.w3.org/2000/svg">
<path transform="translate(0)" d="m0 0h2048v204h-2048z" fill="#010202"/>
<path transform="translate(360,38)" d="m0 0 6 1 29 16 17 10 4 2v61l-5 4-48 28-5-2-28-16-19-11-3-2v-62l23-13 24-13z" fill="#011953"/>
<path transform="translate(360,38)" d="m0 0 6 1 29 16 19 11v2l-18 10-15 9-17 10-5-1-18-10-20-12-12-7 4-3 24-13z" fill="#0240A9"/>
<path transform="translate(537,85)" d="m0 0 9 1 6 4 4 5 2 7v9l-3 9-7 6-3 1h-12l-7-4-5-8-1-5v-8l3-9 6-6z" fill="#fff"/>
<path transform="translate(448,73)" d="m0 0h22l8 3 4 5 1 3v9l-4 8-7 4-6 1h-10v20l-7 1-1-1z" fill="#fff"/>
<path transform="translate(700,85)" d="m0 0 10 2 4 4 2 7v28l-5 1-2-5-5 4-3 1h-11l-6-5-1-2v-10l5-5 5-2 15-2-1-7-5-2-13 2-1-1v-5l5-2z" fill="#fff"/>
<path transform="translate(619,85)" d="m0 0 10 2 5 4 3 7v10h-27l3 9 4 3h12l6-1 1 3-1 3-5 2h-14l-8-4-5-8-1-11 2-9 6-7z" fill="#fff"/>
<path transform="translate(538,91)" d="m0 0 8 2 3 3 1 3v14l-3 6-3 2h-10l-5-5-2-8 2-12 4-4z" fill="#020202"/>
<path transform="translate(560,86)" d="m0 0h7l4 8 7 20v4h2l3-11 8-21h7l-2 9-10 26-4 6-7-1-11-28-4-10z" fill="#fff"/>
<path transform="translate(647,69)" d="m0 0h6l1 1v56l-1 1h-5l-1-1z" fill="#fff"/>
<path transform="translate(513,85)" d="m0 0 4 1-1 6-10 2-4 4-1 4-1 24-1 1h-5l-1-1v-40h5l1 1v5l8-6z" fill="#fff"/>
<path transform="translate(456,79)" d="m0 0h11l7 3 1 2v10l-4 4-9 2h-6z" fill="#020202"/>
<path transform="translate(667,86)" d="m0 0h6v40l-5 1-2-1v-39z" fill="#fff"/>
<path transform="translate(701,107)" d="m0 0h7l1 4-2 6-3 3-5 2-6-1-3-3v-6l5-4z" fill="#020202"/>
<path transform="translate(618,91)" d="m0 0 8 1 3 4 1 6h-20l1-6 4-4z" fill="#020202"/>
<path transform="translate(669,71)" d="m0 0 5 2v5l-5 2-3-2v-5z" fill="#fff"/>
</svg>
