<?xml version="1.0" encoding="UTF-8"?>
<svg version="1.1" viewBox="0 0 2000 2000" width="500" height="500" xmlns="http://www.w3.org/2000/svg">
<path transform="translate(0)" d="m0 0h2e3v2e3h-2e3z"/>
<path transform="translate(295,705)" d="m0 0 11 1 17 4 27 14 16 9 27 15 23 13 26 14 23 13 26 15 28 16 25 15 9 5 1 1v279l-10 9-18 13-25 15-24 14-49 29-104 61-13 8-7-1-26-13-23-13-25-14-24-14-22-12-21-12-26-15-51-30-25-15-5-4-1-9v-272l2-6 9-4 12-8 17-10 46-25 16-9 24-13 25-14 22-12 21-12 27-15z" fill="#021B52"/>
<path transform="translate(295,705)" d="m0 0 11 1 17 4 27 14 16 9 27 15 23 13 26 14 23 13 26 15 28 16 25 15 4 4-2 4-26 15-21 12-52 30-15 9-27 16-17 10-24 14-20 12-17 10-14 7-11-1-14-5-27-14-21-12-23-13-24-14-40-24-28-17-16-9-13-8-27-15-9-4 1-4 11-7 14-9 26-14 16-9 27-15 26-14 25-14 22-12 21-12 27-15z" fill="#0540A7"/>
<path transform="translate(1108,922)" d="m0 0h10l31 3 9 4 19 13 7 6 12 16 5 10 6 21 1 5v44l-12 35-4 6-12 11-11 9-7 6-14 4h-56l-17-9-13-8-6-7-16-26-4-9-4-20v-32l2-10 11-32 6-8 14-15 9-8 13-4z" fill="#FEFEFE"/>
<path transform="translate(701,866)" d="m0 0h102l23 8 14 7 10 11 8 11 4 11 1 14-1 33-15 30-6 7-23 13-11 4-24 4h-45v91l-5 2-17 2h-13l-2-3z" fill="#FEFEFE"/>
<path transform="translate(1856,922)" d="m0 0h9l36 7 9 3 16 16 4 10 5 20 1 8v124l-5 2-15 3-4-1-8-19v-3l-22 18-10 4-5 1h-51l-10-8-13-11-7-8-2-4v-47l7-8 14-14 10-5 14-5 26-4 38-5 5-1-4-29-4-4-15-6-8-1-53 8-5-1-2-3-1-20 2-4 18-8 13-3z" fill="#FEFEFE"/>
<path transform="translate(1487,922)" d="m0 0 10 1 31 6 9 3 17 13 5 6 7 15 6 17v44l-1 1h-123l13 38 2 4 11 8 6 4h56l22-3h5l4 11-1 8-4 8-11 5-12 4h-65l-19-9-15-8-6-7-15-24-4-7-2-15-3-36 8-36 4-9 7-7 9-11 9-10 15-6z" fill="#FEFEFE"/>
<path transform="translate(1217,926)" d="m0 0h33l16 32 9 24 21 60 4 13 1 18 5 1 3-3 11-39 9-27 14-36 15-40 2-3h32l-2 13-7 29-10 28-16 41-16 42-7 14-15 22-12-1-17-2-5-3-14-35-16-41-20-51-16-40-3-11z" fill="#FEFEFE"/>
<path transform="translate(1113,949)" d="m0 0 13 2 24 7 6 4 11 11 4 12v65l-5 12-9 17-10 7-6 2h-43l-8-7-16-16-9-35 1-12 6-34 1-8 1-4 3-1 2-4 12-12 11-4z"/>
<path transform="translate(995,922)" d="m0 0h9l14 3 1 4-4 23-3 3-37 7-10 3-2 4h-2l-2 4h-2l-2 4-5 7-3 11-2 25-4 91-3 3-3 1h-23l-3-2-1-4v-182l1-1h22l4 2 1 3v22l11-8 14-11 10-7 4-2z" fill="#FEFEFE"/>
<path transform="translate(1618,848)" d="m0 0h27l5 2v262l-4 3h-24l-4-4z" fill="#FEFEFE"/>
<path transform="translate(738,894)" d="m0 0h52l29 13 5 5 2 7-1 44-7 8-9 9-6 3-32 7-7 1h-26z"/>
<path transform="translate(1710,926)" d="m0 0h27l1 1v183l-4 2-14 3h-8l-6-4-1-6v-174l2-4z" fill="#FEFEFE"/>
<path transform="translate(1864,1023)" d="m0 0h35l2 7 2 8v7l-8 23-7 8-8 7-14 6-5 2h-13l-17-3-6-4-7-8-2-2v-27l5-6 11-8 7-5 18-4z"/>
<path transform="translate(1483,949)" d="m0 0 21 2 17 3 7 8 7 11 4 21v6h-91v-7l3-18 2-4 3-3h2l2-4 10-10 9-4z"/>
<path transform="translate(1719,857)" d="m0 0 13 4 9 4 1 2v23l-11 5-10 4-5-1-9-7-2-4v-19l2-4 9-6z" fill="#FEFEFE"/>
</svg>
